<?xml version="1.0" standalone="no"?>
<!DOCTYPE svg PUBLIC "-//W3C//DTD SVG 20010904//EN"
 "http://www.w3.org/TR/2001/REC-SVG-20010904/DTD/svg10.dtd">
<svg version="1.0" xmlns="http://www.w3.org/2000/svg"
 width="232.000000pt" height="300.000000pt" viewBox="0 0 232.000000 300.000000"
 preserveAspectRatio="xMidYMid meet">
<metadata>
Created by potrace 1.11, written by Peter Selinger 2001-2013
</metadata>
<g transform="translate(0.000000,300.000000) scale(0.100000,-0.100000)"
fill="#000000" stroke="none">
<path d="M990 2578 c-95 -8 -130 -16 -199 -44 -100 -42 -330 -187 -407 -256
-146 -134 -317 -490 -331 -691 -10 -143 61 -504 126 -643 96 -205 238 -348
437 -440 97 -45 169 -60 354 -75 320 -25 509 5 723 112 219 111 373 281 509
564 l43 90 0 200 c-1 187 -3 206 -28 300 -39 140 -96 271 -178 408 -78 131
-146 204 -294 317 -197 150 -257 171 -492 169 -81 -1 -200 -6 -263 -11z m375
-37 c475 -98 818 -499 842 -982 41 -820 -828 -1371 -1553 -985 -271 145 -459
391 -536 704 -27 110 -30 328 -5 438 82 363 316 641 652 775 174 69 412 89
600 50z"/>
<path d="M1020 2445 c-41 -14 -98 -25 -126 -25 -39 0 -62 -7 -108 -35 -32 -19
-75 -39 -97 -45 -38 -10 -69 -33 -69 -51 0 -5 -30 -40 -67 -78 -121 -122 -230
-245 -245 -276 -34 -68 -58 -211 -84 -512 -20 -225 -17 -246 56 -357 26 -39
66 -109 90 -155 51 -98 89 -130 185 -156 50 -14 79 -30 121 -66 39 -35 71 -53
112 -64 31 -9 95 -27 142 -40 142 -41 178 -46 279 -40 76 6 110 13 161 37 36
16 101 38 146 48 179 42 217 67 331 216 34 43 88 111 122 149 95 109 98 119
92 316 -1 47 5 138 14 202 22 149 15 206 -34 300 -21 40 -42 94 -46 122 -10
70 -24 91 -105 164 -39 35 -90 88 -113 119 -78 103 -182 152 -452 212 -193 43
-217 44 -305 15z m300 -86 c83 -12 98 -18 153 -63 36 -28 44 -30 122 -31 79 0
86 -2 114 -29 20 -19 39 -56 56 -107 26 -76 46 -109 114 -179 77 -81 94 -160
76 -355 -6 -76 -5 -96 9 -122 26 -51 21 -85 -20 -127 l-36 -38 6 -77 7 -78
-50 -74 c-28 -41 -51 -84 -51 -96 0 -14 -11 -29 -27 -39 -99 -61 -116 -83
-106 -136 7 -34 -32 -64 -103 -78 -30 -7 -80 -25 -111 -41 -30 -16 -61 -29
-69 -29 -8 0 -40 14 -71 30 -48 26 -67 30 -112 28 -51 -3 -55 -5 -62 -32 -8
-27 -24 -45 -41 -46 -4 0 -36 20 -72 45 -73 49 -95 53 -172 30 -98 -30 -149
-15 -192 56 -26 41 -36 49 -61 49 -25 0 -38 10 -75 59 -26 34 -58 63 -75 69
-27 9 -30 16 -36 69 -4 32 -20 88 -36 125 -23 53 -29 81 -29 140 0 60 -5 84
-30 136 -54 115 -50 217 12 266 30 23 33 31 38 99 6 65 11 81 42 123 20 27 45
67 56 89 23 47 61 72 123 81 56 9 77 27 90 81 15 56 47 89 100 103 24 7 65 24
91 38 44 25 50 26 80 13 18 -8 52 -16 75 -18 38 -4 45 -1 78 32 42 41 71 56
100 50 11 -2 54 -9 95 -16z"/>
<path d="M1285 2212 c-40 -25 -51 -39 -65 -88 -24 -80 28 -160 125 -190 52
-17 56 -17 95 1 62 28 90 67 90 124 0 60 -42 130 -93 154 -46 22 -114 22 -152
-1z"/>
<path d="M925 2213 c-57 -14 -115 -90 -115 -151 0 -44 22 -100 50 -127 26 -24
35 -27 104 -26 94 1 125 16 154 74 28 56 28 103 -1 157 -35 66 -107 94 -192
73z"/>
<path d="M1499 1911 c-69 -22 -109 -76 -109 -151 0 -102 103 -181 197 -152 32
10 40 9 58 -7 36 -33 62 -41 134 -41 60 0 74 3 100 26 35 29 56 91 46 140 -13
71 -92 125 -185 127 -35 0 -51 6 -72 27 -37 37 -106 50 -169 31z"/>
<path d="M563 1838 c-45 -15 -94 -69 -102 -115 -19 -104 38 -178 146 -187 91
-8 150 34 174 125 11 43 10 50 -12 95 -38 78 -119 110 -206 82z"/>
<path d="M993 1819 c-68 -26 -98 -81 -91 -165 6 -70 32 -99 103 -115 46 -10
57 -9 98 9 58 26 107 90 107 141 -1 46 -31 114 -61 135 -31 21 -92 20 -156 -5z"/>
<path d="M1368 1570 c-49 -26 -80 -79 -76 -127 3 -33 -1 -41 -28 -60 -63 -44
-89 -144 -55 -211 28 -55 55 -72 116 -72 113 0 204 117 166 214 -6 15 2 29 30
57 117 117 -5 277 -153 199z"/>
<path d="M874 1461 c-50 -30 -73 -135 -43 -193 55 -107 177 -131 262 -50 21
20 27 35 27 66 0 57 -18 117 -43 145 -47 52 -145 67 -203 32z"/>
<path d="M578 1428 c-20 -5 -44 -18 -53 -28 -25 -28 -31 -101 -11 -141 16 -31
15 -33 -6 -56 -16 -17 -23 -39 -25 -81 -5 -68 22 -122 77 -160 29 -20 44 -23
93 -20 46 4 63 10 87 33 57 55 62 143 11 206 -18 22 -17 23 5 57 40 59 27 135
-32 181 -29 23 -82 26 -146 9z"/>
<path d="M1700 1372 c-81 -11 -143 -61 -155 -125 -9 -45 9 -108 40 -141 22
-24 31 -26 97 -26 90 0 126 19 158 85 28 58 24 124 -10 160 -26 28 -94 52
-130 47z"/>
<path d="M898 1079 c-55 -29 -63 -50 -60 -167 2 -47 7 -59 35 -87 69 -69 171
-68 238 2 32 32 34 38 34 103 0 76 -16 107 -75 148 -42 28 -119 29 -172 1z"/>
<path d="M1287 1020 c-41 -32 -71 -104 -63 -152 14 -89 55 -125 151 -135 43
-5 60 -1 91 16 58 33 78 66 82 136 7 107 -46 153 -174 154 -47 1 -67 -4 -87
-19z"/>
</g>
</svg>
