<?xml version="1.0" standalone="no"?>
<!DOCTYPE svg PUBLIC "-//W3C//DTD SVG 20010904//EN"
 "http://www.w3.org/TR/2001/REC-SVG-20010904/DTD/svg10.dtd">
<svg version="1.0" xmlns="http://www.w3.org/2000/svg"
 width="558.000000pt" height="822.000000pt" viewBox="0 0 558.000000 822.000000"
 preserveAspectRatio="xMidYMid meet">
<metadata>
Created by potrace 1.11, written by Peter Selinger 2001-2013
</metadata>
<g transform="translate(0.000000,822.000000) scale(0.100000,-0.100000)"
fill="#000000" stroke="none">
<path d="M3232 8118 c-17 -17 -17 -509 0 -526 17 -17 879 -17 896 0 17 17 17
509 0 526 -17 17 -879 17 -896 0z m304 -109 c4 -8 9 -8 17 0 20 20 68 13 74
-9 l6 -21 14 21 c18 25 68 27 82 3 10 -17 10 -17 11 -1 0 15 12 17 85 17 68 0
85 -3 85 -14 0 -9 -11 -16 -27 -16 l-28 -2 26 -4 c21 -3 26 -10 27 -34 1 -29
0 -29 -54 -29 -39 0 -56 4 -60 15 -4 8 -10 15 -15 15 -5 0 -9 -7 -9 -15 0 -8
-7 -15 -15 -15 -8 0 -15 5 -15 10 0 6 -11 3 -25 -6 -21 -14 -31 -15 -50 -6
-14 7 -25 16 -25 22 0 5 -9 1 -20 -10 -22 -22 -37 -25 -59 -11 -9 6 -22 6 -34
-1 -10 -5 -29 -7 -42 -4 -26 7 -41 36 -24 46 8 6 8 9 0 14 -8 5 -8 13 -1 27
12 21 64 27 76 8z m54 -189 l20 -20 20 20 c27 27 71 26 99 -4 l22 -24 24 24
c13 13 35 24 47 24 29 0 68 -26 68 -46 0 -8 -10 -14 -22 -14 l-22 0 22 -16
c15 -11 22 -25 22 -50 0 -68 -68 -97 -115 -49 l-25 24 -25 -24 c-29 -30 -68
-32 -93 -7 -18 18 -19 18 -42 0 -27 -22 -68 -23 -98 -2 -20 14 -22 22 -19 86
3 55 8 74 22 84 27 20 72 17 95 -6z"/>
<path d="M3574 7975 c-10 -24 4 -34 30 -22 21 10 22 13 7 24 -21 16 -30 16
-37 -2z"/>
<path d="M3674 7975 c-3 -8 -3 -19 1 -25 11 -18 25 -11 25 15 0 27 -17 34 -26
10z"/>
<path d="M3778 7983 c7 -3 16 -2 19 1 4 3 -2 6 -13 5 -11 0 -14 -3 -6 -6z"/>
<path d="M3487 7949 c7 -7 15 -10 18 -7 3 3 -2 9 -12 12 -14 6 -15 5 -6 -5z"/>
<path d="M3527 7794 c-13 -13 -7 -24 14 -24 11 0 19 5 17 12 -5 14 -22 21 -31
12z"/>
<path d="M3811 7786 c-10 -12 -8 -13 8 -9 12 3 18 9 15 14 -7 12 -10 11 -23
-5z"/>
<path d="M3664 7779 c-10 -17 13 -36 27 -22 12 12 4 33 -11 33 -5 0 -12 -5
-16 -11z"/>
<path d="M3812 7728 c-13 -13 -4 -38 14 -38 15 0 19 35 6 44 -5 3 -14 0 -20
-6z"/>
<path d="M3533 7723 c-18 -6 -16 -30 2 -37 9 -3 18 1 22 10 7 18 -7 33 -24 27z"/>
<path d="M3676 7701 c-12 -5 -15 -10 -9 -14 6 -4 16 0 23 8 14 17 13 17 -14 6z"/>
<path d="M4202 8118 c-17 -17 -17 -509 0 -526 17 -17 1019 -17 1036 0 17 17
17 509 0 526 -17 17 -1019 17 -1036 0z m438 -110 c0 -10 2 -10 8 -1 5 8 46 12
125 12 98 1 117 -2 117 -14 0 -8 -7 -15 -15 -15 -10 0 -15 -11 -15 -35 0 -24
-5 -35 -15 -35 -10 0 -15 11 -15 35 0 19 -4 35 -8 35 -16 0 -21 -13 -12 -31
16 -28 -15 -52 -57 -44 -19 3 -70 6 -114 6 l-79 0 0 49 0 50 40 0 c25 0 40 -5
40 -12z m-62 -189 l8 -20 18 20 c25 28 71 27 100 -2 l23 -23 17 23 c19 26 62
30 90 10 10 -8 21 -30 25 -51 l6 -37 38 50 c23 31 45 51 57 51 17 0 20 -7 20
-54 0 -39 4 -55 15 -60 8 -3 15 -12 15 -21 0 -8 -7 -15 -15 -15 -8 0 -15 -9
-15 -20 0 -15 -7 -20 -25 -20 -18 0 -25 5 -25 20 0 31 -60 27 -90 -5 -29 -31
-64 -32 -93 -2 l-22 22 -22 -22 c-40 -42 -123 -19 -123 33 0 19 5 24 25 24 16
0 25 -6 25 -15 0 -8 9 -15 20 -15 11 0 20 7 20 15 0 8 -9 15 -20 15 -27 0 -27
37 1 45 16 5 18 10 9 18 -8 9 -15 8 -24 -5 -16 -22 -42 -23 -54 -2 -7 13 -11
12 -25 -9 -9 -14 -21 -46 -28 -71 -9 -39 -15 -46 -35 -46 -31 0 -32 35 -4 90
11 22 20 42 20 45 0 3 -16 5 -35 5 -27 0 -35 4 -35 18 0 28 8 32 72 32 50 0
60 -3 66 -21z"/>
<path d="M4688 7983 c6 -2 18 -2 25 0 6 3 1 5 -13 5 -14 0 -19 -2 -12 -5z"/>
<path d="M4590 7950 c0 -5 5 -10 10 -10 6 0 10 5 10 10 0 6 -4 10 -10 10 -5 0
-10 -4 -10 -10z"/>
<path d="M4757 7949 c7 -7 15 -10 18 -7 3 3 -2 9 -12 12 -14 6 -15 5 -6 -5z"/>
<path d="M4777 7784 c-10 -10 -8 -67 3 -84 15 -24 32 2 28 45 -3 37 -16 53
-31 39z"/>
<path d="M4915 7740 c-3 -5 -1 -10 4 -10 6 0 11 5 11 10 0 6 -2 10 -4 10 -3 0
-8 -4 -11 -10z"/>
<path d="M290 7860 l0 -200 141 0 140 0 -3 38 -3 37 -97 3 -98 3 0 159 0 160
-40 0 -40 0 0 -200z"/>
<path d="M2026 8050 c-52 -16 -96 -75 -96 -130 0 -17 6 -20 40 -20 36 0 40 3
40 25 0 26 31 65 53 65 26 0 57 -31 57 -59 0 -36 -11 -49 -94 -106 -49 -35
-74 -60 -87 -89 -35 -77 -37 -76 121 -76 l140 0 0 35 0 35 -86 0 c-100 0 -101
4 -2 71 65 45 88 80 88 138 0 50 -37 96 -88 111 -42 11 -47 11 -86 0z"/>
<path d="M2323 8049 c-17 -5 -41 -22 -52 -37 -66 -93 -45 -304 34 -340 43 -20
118 -15 150 10 41 32 55 76 55 175 0 97 -16 142 -60 175 -31 23 -85 30 -127
17z m86 -78 c38 -38 33 -209 -7 -239 -27 -20 -56 -10 -75 28 -25 47 -19 180 8
210 23 25 49 26 74 1z"/>
<path d="M2944 8049 c-70 -20 -104 -109 -61 -157 18 -19 17 -21 -7 -45 -38
-38 -36 -105 3 -149 26 -29 35 -33 98 -36 51 -3 78 0 101 12 71 37 83 140 21
184 -18 12 -18 13 1 32 27 27 26 89 0 123 -20 25 -76 48 -110 46 -8 0 -29 -5
-46 -10z m84 -65 c31 -21 26 -63 -9 -83 -24 -13 -29 -13 -53 2 -33 22 -34 60
-4 81 28 20 38 20 66 0z m12 -164 c25 -25 26 -62 0 -85 -41 -37 -110 -9 -110
46 0 53 71 78 110 39z"/>
<path d="M2622 7938 c-68 -94 -82 -119 -82 -150 l0 -38 80 0 80 0 0 -45 0 -45
40 0 40 0 0 45 c0 41 2 45 25 45 22 0 25 4 25 35 0 31 -3 35 -25 35 l-25 0 0
115 0 115 -38 0 c-37 0 -41 -3 -120 -112z m75 -115 c-3 -2 -24 -3 -46 -1 l-42
3 43 58 43 59 3 -57 c2 -32 1 -59 -1 -62z"/>
<path d="M696 7950 c-61 -19 -96 -73 -96 -150 0 -92 48 -140 140 -140 28 0 61
5 73 11 26 13 56 49 57 67 0 15 -66 17 -75 1 -13 -20 -55 -30 -78 -18 -27 14
-37 28 -37 52 0 15 11 17 101 17 l102 0 -6 40 c-12 92 -95 147 -181 120z m64
-60 c11 -6 24 -19 30 -30 10 -19 7 -20 -50 -20 -53 0 -61 2 -58 17 2 10 14 23
28 30 30 15 27 15 50 3z"/>
<path d="M1035 7955 c-5 -2 -22 -6 -37 -9 -33 -7 -68 -43 -68 -68 0 -27 71
-25 88 2 23 38 104 16 89 -24 -6 -14 -22 -19 -106 -32 -57 -8 -81 -33 -81 -84
0 -59 25 -80 98 -80 33 0 64 5 71 13 11 10 14 10 18 0 3 -8 22 -13 44 -13 l39
0 0 99 c0 122 -7 159 -34 176 -21 13 -102 27 -121 20z m70 -192 c-10 -43 -25
-54 -64 -51 -31 3 -36 7 -39 29 -3 22 2 29 25 37 15 6 41 11 57 11 26 1 28 -1
21 -26z"/>
<path d="M1373 7945 c-18 -8 -33 -19 -33 -25 0 -5 -4 -10 -10 -10 -5 0 -10 9
-10 20 0 16 -7 20 -35 20 l-35 0 0 -145 0 -145 40 0 40 0 0 84 c0 98 20 136
71 136 27 0 29 2 29 40 0 44 -7 47 -57 25z"/>
<path d="M1593 7953 c-12 -2 -27 -11 -33 -19 -16 -18 -30 -18 -30 1 0 10 -11
15 -35 15 l-35 0 0 -145 0 -145 40 0 40 0 0 98 c0 83 3 102 18 115 21 19 49
22 72 7 11 -7 16 -35 18 -115 l4 -105 39 0 39 0 0 98 c0 108 -12 167 -38 181
-24 12 -73 19 -99 14z"/>
<path d="M3927 7423 c-9 -8 -9 -356 -1 -377 6 -14 72 -16 653 -16 490 0 650 3
659 12 8 8 12 66 12 194 0 157 -2 183 -16 188 -21 8 -1299 8 -1307 -1z m261
-170 l22 -38 0 38 c0 30 4 37 20 37 16 0 20 -7 20 -37 1 -31 3 -35 11 -20 12
20 59 23 77 5 9 -9 12 -9 12 0 0 7 9 12 20 12 14 0 20 -7 21 -22 l0 -23 9 23
c5 12 16 22 25 22 9 0 20 -10 25 -22 l9 -23 0 23 c1 16 7 22 22 22 22 0 22
-14 -1 -75 -11 -29 -49 -35 -51 -7 -1 16 -2 16 -6 0 -7 -27 -49 -23 -57 5 l-7
22 -9 -22 c-12 -30 -46 -38 -75 -19 -14 9 -25 12 -25 6 0 -5 -11 -10 -23 -10
-16 0 -28 9 -37 28 l-14 27 -4 -27 c-2 -20 -9 -28 -23 -28 -17 0 -19 7 -19 70
0 61 2 70 18 70 10 0 27 -16 40 -37z m474 20 c13 -12 18 -30 18 -68 0 -52 0
-53 -35 -59 -77 -15 -122 57 -74 118 24 30 63 34 91 9z m129 -73 l6 -45 1 48
2 47 70 0 c54 0 72 -4 76 -15 6 -14 8 -14 18 1 17 23 68 15 82 -14 26 -53 -22
-100 -71 -68 -14 9 -25 12 -25 6 0 -5 -9 -10 -20 -10 -16 0 -20 7 -20 35 0 19
-4 35 -10 35 -5 0 -10 -16 -10 -35 0 -28 -4 -35 -20 -35 -16 0 -20 7 -20 36 0
21 -4 33 -10 29 -5 -3 -10 -19 -10 -35 0 -27 -2 -28 -52 -32 -29 -3 -61 -1
-70 4 -20 10 -25 48 -7 48 8 0 8 4 0 13 -17 21 8 38 49 35 33 -3 35 -5 41 -48z"/>
<path d="M4298 7183 c7 -3 16 -2 19 1 4 3 -2 6 -13 5 -11 0 -14 -3 -6 -6z"/>
<path d="M4595 7231 c-8 -28 5 -51 29 -50 11 0 15 3 9 6 -15 6 -17 43 -3 43 6
0 10 5 10 10 0 18 -38 11 -45 -9z"/>
<path d="M4998 7183 c7 -3 16 -2 19 1 4 3 -2 6 -13 5 -11 0 -14 -3 -6 -6z"/>
<path d="M310 7225 c0 -41 -4 -55 -15 -55 -7 0 -18 7 -23 16 -7 12 -11 13 -16
5 -12 -19 15 -42 43 -39 24 3 26 7 29 66 2 38 -1 62 -8 62 -6 0 -10 -23 -10
-55z"/>
<path d="M450 7270 c0 -5 5 -10 10 -10 6 0 10 5 10 10 0 6 -4 10 -10 10 -5 0
-10 -4 -10 -10z"/>
<path d="M700 7215 c0 -69 17 -90 22 -28 2 27 8 39 21 41 14 3 17 -4 17 -37 0
-23 5 -41 11 -41 6 0 9 19 7 48 -3 44 -5 47 -30 47 -20 -1 -28 4 -28 17 0 10
-4 18 -10 18 -6 0 -10 -28 -10 -65z"/>
<path d="M1300 7217 l0 -64 32 -1 c41 -1 58 13 58 48 0 33 -22 54 -50 47 -15
-4 -20 0 -20 14 0 10 -4 19 -10 19 -6 0 -10 -28 -10 -63z m65 -17 c0 -29 -32
-41 -41 -16 -9 24 4 48 23 44 12 -2 18 -12 18 -28z"/>
<path d="M1980 7261 c0 -14 -6 -17 -24 -14 -44 9 -70 -63 -32 -89 6 -4 23 -8
39 -8 27 0 27 1 27 65 0 36 -2 65 -5 65 -3 0 -5 -8 -5 -19z m-5 -61 c0 -31
-40 -42 -47 -13 -8 29 2 44 26 41 15 -2 21 -10 21 -28z"/>
<path d="M2650 7215 c0 -69 17 -90 22 -28 2 27 8 39 21 41 14 3 17 -4 17 -37
0 -23 5 -41 11 -41 6 0 9 19 7 48 -3 44 -5 47 -30 47 -20 -1 -28 4 -28 17 0
10 -4 18 -10 18 -6 0 -10 -28 -10 -65z"/>
<path d="M2901 7258 c-11 -29 7 -38 26 -12 10 14 16 15 25 6 9 -9 4 -20 -25
-46 -20 -18 -37 -39 -37 -45 0 -7 20 -11 51 -11 36 0 49 4 47 13 -3 6 -15 13
-27 15 l-22 4 23 21 23 22 10 -35 c9 -30 15 -35 44 -38 25 -3 34 1 38 16 3 14
11 18 31 14 15 -3 31 -11 35 -18 11 -19 27 -18 27 1 0 8 4 15 9 15 5 0 14 -7
21 -15 16 -19 64 -20 79 -1 8 10 9 29 4 63 -8 47 -9 48 -43 48 -32 0 -35 -3
-40 -33 -7 -43 -24 -42 -28 3 -4 45 -23 45 -53 0 l-24 -34 -11 32 c-8 25 -17
33 -39 35 -18 2 -33 -2 -41 -12 -10 -14 -13 -15 -24 -1 -20 24 -69 19 -79 -7z
m154 -19 c9 -28 -3 -71 -18 -66 -13 4 -22 51 -13 73 8 20 24 17 31 -7z m200
12 c7 -12 -12 -24 -25 -16 -11 7 -4 25 10 25 5 0 11 -4 15 -9z m-105 -30 c0
-12 -20 -25 -27 -18 -7 7 6 27 18 27 5 0 9 -4 9 -9z m106 -22 c10 -17 -13 -36
-27 -22 -12 12 -4 33 11 33 5 0 12 -5 16 -11z"/>
<path d="M3355 7270 c-3 -5 -3 -10 2 -10 4 0 2 -4 -6 -9 -12 -7 -12 -13 -3
-24 7 -7 9 -17 6 -20 -14 -13 7 -57 26 -57 23 0 24 3 8 30 -10 16 -10 24 1 42
10 16 10 23 2 26 -6 2 -11 10 -11 18 0 16 -16 19 -25 4z"/>
<path d="M3410 7270 c0 -5 7 -10 15 -10 8 0 15 5 15 10 0 6 -7 10 -15 10 -8 0
-15 -4 -15 -10z"/>
<path d="M3460 7215 c0 -51 3 -65 15 -65 12 0 15 14 15 65 0 51 -3 65 -15 65
-12 0 -15 -14 -15 -65z"/>
<path d="M3610 7241 c0 -45 15 -62 24 -28 10 39 7 67 -9 67 -11 0 -15 -11 -15
-39z"/>
<path d="M640 7252 c-10 -12 -11 -17 -2 -20 7 -2 12 -21 12 -43 0 -28 4 -39
15 -39 8 0 15 5 15 10 0 6 -4 10 -10 10 -15 0 -12 58 2 62 10 4 9 8 -2 20 -14
13 -17 13 -30 0z"/>
<path d="M2270 7252 c-10 -12 -11 -17 -2 -20 7 -2 12 -21 12 -43 0 -28 4 -39
15 -39 8 0 15 5 15 10 0 6 -4 10 -10 10 -15 0 -12 58 2 62 10 4 9 8 -2 20 -14
13 -17 13 -30 0z"/>
<path d="M2380 7252 c-10 -12 -11 -17 -2 -20 7 -2 12 -21 12 -43 0 -28 4 -39
15 -39 8 0 15 5 15 10 0 6 -4 10 -10 10 -15 0 -12 58 2 62 10 4 9 8 -2 20 -14
13 -17 13 -30 0z"/>
<path d="M2590 7252 c-10 -12 -11 -17 -2 -20 7 -2 12 -21 12 -43 0 -28 4 -39
15 -39 8 0 15 5 15 10 0 6 -4 10 -10 10 -15 0 -12 58 2 62 10 4 9 8 -2 20 -14
13 -17 13 -30 0z"/>
<path d="M362 7238 c-18 -18 -15 -75 4 -82 41 -16 74 5 74 48 0 36 -53 59 -78
34z m53 -38 c0 -18 -6 -26 -21 -28 -25 -3 -39 29 -21 47 19 19 42 8 42 -19z"/>
<path d="M450 7200 c0 -27 5 -50 10 -50 6 0 10 23 10 50 0 28 -4 50 -10 50 -5
0 -10 -22 -10 -50z"/>
<path d="M490 7198 c0 -57 17 -65 22 -11 2 27 8 39 21 41 14 3 17 -4 17 -37 0
-23 5 -41 11 -41 6 0 9 19 7 48 l-3 47 -37 0 -38 1 0 -48z"/>
<path d="M806 7227 c-29 -43 11 -92 59 -73 28 10 16 26 -15 20 -19 -4 -30 -2
-30 5 0 6 14 11 30 11 22 0 30 5 30 18 0 43 -50 56 -74 19z m49 -7 c3 -5 -3
-10 -14 -10 -12 0 -21 5 -21 10 0 6 6 10 14 10 8 0 18 -4 21 -10z"/>
<path d="M950 7198 c0 -57 17 -65 22 -11 2 27 8 39 21 41 14 3 17 -4 17 -37 0
-23 5 -41 11 -41 6 0 9 19 7 48 l-3 47 -37 0 -38 1 0 -48z"/>
<path d="M1052 7203 c3 -48 3 -48 41 -51 l37 -3 0 50 c0 28 -4 51 -10 51 -5 0
-10 -18 -10 -40 0 -33 -3 -40 -20 -40 -17 0 -20 7 -20 40 0 22 -5 40 -11 40
-6 0 -9 -19 -7 -47z"/>
<path d="M1150 7198 c0 -57 17 -65 22 -10 4 52 31 50 39 -3 5 -34 6 -36 8 -10
2 39 15 59 33 52 10 -3 13 -15 10 -35 -2 -16 1 -33 8 -37 8 -5 10 7 8 42 l-3
48 -62 0 -63 0 0 -47z"/>
<path d="M1416 7227 c-29 -43 11 -92 59 -73 28 10 16 26 -15 20 -19 -4 -30 -2
-30 5 0 6 14 11 30 11 22 0 30 5 30 18 0 43 -50 56 -74 19z m49 -7 c3 -5 -3
-10 -14 -10 -12 0 -21 5 -21 10 0 6 6 10 14 10 8 0 18 -4 21 -10z"/>
<path d="M1510 7198 c0 -27 5 -48 10 -48 6 0 10 16 10 35 0 22 6 38 15 41 24
9 17 22 -10 20 -23 -1 -25 -5 -25 -48z"/>
<path d="M1577 7244 c-17 -17 -5 -43 23 -53 42 -14 38 -25 -7 -16 -33 6 -35 5
-24 -9 17 -21 55 -20 72 0 11 14 10 18 -6 30 -10 8 -25 14 -32 14 -7 0 -13 5
-13 11 0 7 10 9 26 5 19 -5 25 -3 22 6 -5 14 -50 23 -61 12z"/>
<path d="M1723 7243 c-25 -10 -12 -22 17 -16 19 3 30 1 30 -6 0 -6 -9 -11 -19
-11 -25 0 -52 -27 -45 -45 4 -10 20 -14 50 -13 36 0 42 3 33 14 -6 7 -9 23 -8
36 6 41 -18 58 -58 41z m42 -63 c-3 -5 -13 -10 -21 -10 -8 0 -14 5 -14 10 0 6
9 10 21 10 11 0 17 -4 14 -10z"/>
<path d="M1810 7198 c0 -57 17 -65 22 -11 2 27 8 39 21 41 14 3 17 -4 17 -37
0 -23 5 -41 11 -41 6 0 9 19 7 48 l-3 47 -37 0 -38 1 0 -48z"/>
<path d="M2076 7227 c-22 -32 -10 -67 25 -74 16 -3 29 -10 29 -15 0 -6 -13 -8
-30 -4 -36 7 -41 -11 -5 -20 40 -10 55 11 55 75 0 56 -1 57 -30 59 -21 2 -34
-4 -44 -21z m54 -27 c0 -23 -4 -30 -20 -30 -16 0 -20 7 -20 30 0 23 4 30 20
30 16 0 20 -7 20 -30z"/>
<path d="M2176 7227 c-29 -43 11 -92 59 -73 28 10 16 26 -15 20 -19 -4 -30 -2
-30 5 0 6 14 11 30 11 22 0 30 5 30 18 0 43 -50 56 -74 19z m49 -7 c3 -5 -3
-10 -14 -10 -12 0 -21 5 -21 10 0 6 6 10 14 10 8 0 18 -4 21 -10z"/>
<path d="M2452 7238 c-18 -18 -15 -75 4 -82 41 -16 74 5 74 48 0 36 -53 59
-78 34z m53 -38 c0 -18 -6 -26 -21 -28 -25 -3 -39 29 -21 47 19 19 42 8 42
-19z"/>
<path d="M2756 7227 c-29 -43 11 -92 59 -73 28 10 16 26 -15 20 -19 -4 -30 -2
-30 5 0 6 14 11 30 11 22 0 30 5 30 18 0 43 -50 56 -74 19z m49 -7 c3 -5 -3
-10 -14 -10 -12 0 -21 5 -21 10 0 6 6 10 14 10 8 0 18 -4 21 -10z"/>
<path d="M3410 7201 c0 -39 4 -51 16 -51 12 0 14 10 12 47 -4 66 -28 70 -28 4z"/>
<path d="M3516 7228 c-20 -28 -20 -43 0 -62 20 -21 58 -20 75 0 12 15 10 16
-18 10 -18 -4 -34 -3 -38 3 -4 7 7 11 29 11 40 0 47 17 20 44 -22 22 -50 20
-68 -6z m49 -8 c3 -5 -1 -10 -10 -10 -9 0 -13 5 -10 10 3 6 8 10 10 10 2 0 7
-4 10 -10z"/>
<path d="M3610 7165 c0 -8 7 -15 15 -15 8 0 15 7 15 15 0 8 -7 15 -15 15 -8 0
-15 -7 -15 -15z"/>
<path d="M260 6755 l0 -65 45 0 c25 0 45 5 45 10 0 6 -16 10 -35 10 l-35 0 0
55 c0 30 -4 55 -10 55 -6 0 -10 -28 -10 -65z"/>
<path d="M770 6755 c0 -69 17 -90 22 -28 2 27 8 39 21 41 14 3 17 -4 17 -37 0
-23 5 -41 11 -41 6 0 9 19 7 48 -3 44 -5 47 -30 47 -20 -1 -28 4 -28 17 0 10
-4 18 -10 18 -6 0 -10 -28 -10 -65z"/>
<path d="M1620 6755 c0 -37 4 -65 10 -65 6 0 10 9 10 20 0 26 14 25 33 -2 8
-13 18 -20 22 -16 3 3 -1 18 -11 32 -16 25 -16 28 1 46 24 27 7 25 -22 -2
l-23 -21 0 36 c0 20 -4 37 -10 37 -6 0 -10 -28 -10 -65z"/>
<path d="M3380 6755 c0 -51 3 -65 15 -65 12 0 15 14 15 65 0 51 -3 65 -15 65
-12 0 -15 -14 -15 -65z"/>
<path d="M3430 6810 c0 -5 7 -10 15 -10 8 0 15 5 15 10 0 6 -7 10 -15 10 -8 0
-15 -4 -15 -10z"/>
<path d="M3730 6801 c0 -14 -5 -18 -19 -14 -12 3 -24 -3 -33 -16 -14 -20 -14
-20 -31 -1 -22 26 -52 25 -71 -2 -20 -28 -20 -43 0 -62 20 -21 58 -20 75 0 12
15 10 16 -18 10 -18 -4 -34 -3 -38 3 -4 7 8 11 33 11 31 0 41 -4 45 -20 4 -16
14 -20 46 -20 l41 0 0 65 c0 51 -3 65 -15 65 -8 0 -15 -9 -15 -19z m-105 -41
c3 -5 -1 -10 -10 -10 -9 0 -13 5 -10 10 3 6 8 10 10 10 2 0 7 -4 10 -10z m104
-37 c-6 -7 -15 -13 -19 -13 -15 0 -20 33 -8 47 10 13 14 13 25 -3 9 -13 10
-21 2 -31z"/>
<path d="M4190 6810 c0 -5 7 -10 15 -10 8 0 15 5 15 10 0 6 -7 10 -15 10 -8 0
-15 -4 -15 -10z"/>
<path d="M4620 6806 c0 -8 -6 -17 -12 -20 -10 -5 -10 -7 0 -12 6 -3 13 -24 14
-47 1 -41 1 -41 5 -7 3 19 10 41 16 49 9 11 9 15 -1 19 -10 3 -8 8 5 18 17 13
17 13 -4 14 -13 0 -23 -6 -23 -14z"/>
<path d="M4722 6808 c-7 -7 -12 -19 -12 -27 1 -14 3 -13 14 2 15 20 32 22 42
6 4 -6 -9 -26 -30 -45 -20 -18 -36 -38 -36 -43 0 -6 20 -11 45 -11 25 0 45 5
45 10 0 6 -15 10 -32 10 l-33 1 33 27 c18 15 32 34 32 43 0 20 -20 39 -40 39
-9 0 -21 -5 -28 -12z"/>
<path d="M4821 6806 c-18 -21 -10 -97 12 -110 28 -18 52 4 55 53 3 46 -10 71
-38 71 -10 0 -23 -6 -29 -14z m47 -54 c3 -37 1 -42 -17 -42 -12 0 -22 7 -22
15 -1 8 -2 21 -3 28 -3 20 14 49 27 44 7 -2 13 -22 15 -45z"/>
<path d="M4930 6776 c-16 -25 -30 -47 -30 -50 0 -3 14 -6 30 -6 20 0 30 -5 30
-15 0 -21 17 -19 22 3 6 27 -3 112 -13 112 -4 0 -22 -20 -39 -44z m30 -16 c0
-11 -7 -20 -15 -20 -18 0 -19 12 -3 28 16 16 18 15 18 -8z"/>
<path d="M5023 6808 c-6 -7 -10 -35 -9 -63 l1 -50 35 0 35 0 1 50 c1 54 -9 75
-36 75 -10 0 -22 -6 -27 -12z m47 -23 c0 -8 -9 -15 -20 -15 -11 0 -20 7 -20
15 0 8 9 15 20 15 11 0 20 -7 20 -15z m0 -55 c0 -13 -7 -20 -20 -20 -13 0 -20
7 -20 20 0 13 7 20 20 20 13 0 20 -7 20 -20z"/>
<path d="M1160 6792 c-10 -12 -11 -17 -2 -20 7 -2 12 -21 12 -43 0 -28 4 -39
15 -39 8 0 15 5 15 10 0 6 -4 10 -10 10 -15 0 -12 58 2 62 10 4 9 8 -2 20 -14
13 -17 13 -30 0z"/>
<path d="M366 6767 c-29 -43 11 -92 59 -73 28 10 16 26 -15 20 -19 -4 -30 -2
-30 5 0 6 14 11 30 11 22 0 30 5 30 18 0 43 -50 56 -74 19z m49 -7 c3 -5 -3
-10 -14 -10 -12 0 -21 5 -21 10 0 6 6 10 14 10 8 0 18 -4 21 -10z"/>
<path d="M473 6783 c-25 -10 -12 -22 17 -16 19 3 30 1 30 -6 0 -6 -9 -11 -19
-11 -25 0 -52 -27 -45 -45 4 -10 20 -14 50 -13 36 0 42 3 33 14 -6 7 -9 23 -8
36 6 41 -18 58 -58 41z m42 -63 c-3 -5 -13 -10 -21 -10 -8 0 -14 5 -14 10 0 6
9 10 21 10 11 0 17 -4 14 -10z"/>
<path d="M560 6738 c0 -27 5 -48 10 -48 6 0 10 16 10 35 0 22 6 38 15 41 24 9
17 22 -10 20 -23 -1 -25 -5 -25 -48z"/>
<path d="M620 6738 c0 -57 17 -65 22 -11 2 27 8 39 21 41 14 3 17 -4 17 -37 0
-23 5 -41 11 -41 6 0 9 19 7 48 l-3 47 -37 0 -38 1 0 -48z"/>
<path d="M882 6778 c-18 -18 -15 -75 4 -82 41 -16 74 5 74 48 0 36 -53 59 -78
34z m53 -38 c0 -18 -6 -26 -21 -28 -25 -3 -39 29 -21 47 19 19 42 8 42 -19z"/>
<path d="M960 6787 c0 -16 34 -97 41 -97 4 0 12 15 17 33 10 33 12 31 28 -20
7 -26 22 -12 34 32 15 55 7 71 -13 24 l-14 -34 -7 33 c-4 17 -12 32 -17 32 -4
0 -13 -15 -18 -32 l-9 -33 -12 33 c-7 17 -16 32 -21 32 -5 0 -9 -1 -9 -3z"/>
<path d="M1232 6778 c-18 -18 -15 -75 4 -82 41 -16 74 5 74 48 0 36 -53 59
-78 34z m53 -38 c0 -18 -6 -26 -21 -28 -25 -3 -39 29 -21 47 19 19 42 8 42
-19z"/>
<path d="M1370 6738 c0 -57 17 -65 22 -10 4 52 31 50 39 -3 5 -34 6 -36 8 -10
2 39 15 59 33 52 10 -3 13 -15 10 -35 -2 -16 1 -33 8 -37 8 -5 10 7 8 42 l-3
48 -62 0 -63 0 0 -47z"/>
<path d="M1533 6783 c-25 -10 -12 -22 17 -16 19 3 30 1 30 -6 0 -6 -9 -11 -19
-11 -25 0 -52 -27 -45 -45 4 -10 20 -14 50 -13 36 0 42 3 33 14 -6 7 -9 23 -8
36 6 41 -18 58 -58 41z m42 -63 c-3 -5 -13 -10 -21 -10 -8 0 -14 5 -14 10 0 6
9 10 21 10 11 0 17 -4 14 -10z"/>
<path d="M1716 6767 c-29 -43 11 -92 59 -73 28 10 16 26 -15 20 -19 -4 -30 -2
-30 5 0 6 14 11 30 11 22 0 30 5 30 18 0 43 -50 56 -74 19z m49 -7 c3 -5 -3
-10 -14 -10 -12 0 -21 5 -21 10 0 6 6 10 14 10 8 0 18 -4 21 -10z"/>
<path d="M1850 6786 c0 -2 9 -25 20 -50 17 -41 18 -47 3 -61 -8 -9 -13 -19 -9
-22 11 -11 34 18 49 60 8 23 18 50 22 60 4 9 3 17 -3 17 -5 0 -16 -17 -24 -37
l-14 -38 -13 38 c-7 20 -17 37 -22 37 -5 0 -9 -2 -9 -4z"/>
<path d="M1962 6778 c-18 -18 -15 -75 4 -82 41 -16 74 5 74 48 0 36 -53 59
-78 34z m53 -38 c0 -18 -6 -26 -21 -28 -25 -3 -39 29 -21 47 19 19 42 8 42
-19z"/>
<path d="M2052 6743 c3 -48 3 -48 41 -51 l37 -3 0 50 c0 28 -4 51 -10 51 -5 0
-10 -18 -10 -40 0 -33 -3 -40 -20 -40 -17 0 -20 7 -20 40 0 22 -5 40 -11 40
-6 0 -9 -19 -7 -47z"/>
<path d="M2150 6738 c0 -27 5 -48 10 -48 6 0 10 16 10 35 0 22 6 38 15 41 24
9 17 22 -10 20 -23 -1 -25 -5 -25 -48z"/>
<path d="M2272 6778 c-7 -7 -12 -24 -12 -38 0 -31 17 -50 45 -50 28 0 45 19
45 50 0 31 -17 50 -45 50 -12 0 -26 -5 -33 -12z m52 -51 c-3 -9 -12 -17 -19
-17 -19 0 -27 30 -14 47 10 12 14 12 26 0 8 -7 11 -21 7 -30z"/>
<path d="M2360 6788 c0 -2 6 -23 14 -48 16 -53 40 -64 51 -23 l8 28 6 -25 c12
-43 37 -36 51 15 7 25 10 48 7 51 -10 10 -27 -7 -27 -27 0 -11 -4 -17 -10 -14
-5 3 -10 15 -10 26 0 29 -27 23 -38 -8 l-10 -28 -7 28 c-4 15 -13 27 -21 27
-8 0 -14 -1 -14 -2z"/>
<path d="M2520 6738 c0 -57 13 -63 26 -12 12 47 28 48 32 2 4 -53 32 -52 32 1
0 45 -13 58 -57 58 -33 0 -33 -1 -33 -49z"/>
<path d="M2680 6723 c0 -49 3 -63 15 -63 8 0 12 6 9 14 -4 11 4 16 28 18 29 3
33 7 36 36 4 44 -12 62 -54 60 l-34 -1 0 -64z m64 4 c-3 -9 -10 -17 -15 -17
-14 0 -22 27 -15 47 6 15 8 15 22 2 8 -9 12 -23 8 -32z"/>
<path d="M2796 6768 c-20 -28 -20 -43 0 -62 20 -21 58 -20 75 0 12 15 10 16
-18 10 -18 -4 -34 -3 -38 3 -4 7 7 11 29 11 40 0 47 17 20 44 -22 22 -50 20
-68 -6z m49 -8 c3 -5 -1 -10 -10 -10 -9 0 -13 5 -10 10 3 6 8 10 10 10 2 0 7
-4 10 -10z"/>
<path d="M2890 6738 c0 -56 15 -64 24 -13 4 21 13 35 21 35 8 0 15 6 15 13 0
8 -12 14 -30 14 -29 0 -30 -2 -30 -49z"/>
<path d="M2964 6775 c-9 -23 3 -45 26 -45 11 0 20 -4 20 -10 0 -5 -14 -7 -32
-3 -30 6 -32 5 -19 -11 9 -11 25 -16 45 -14 26 2 31 7 31 28 0 18 -6 26 -22
28 -13 2 -23 8 -23 13 0 5 12 6 28 3 24 -7 26 -6 13 9 -17 21 -60 22 -67 2z"/>
<path d="M3072 6778 c-7 -7 -12 -24 -12 -38 0 -31 17 -50 45 -50 28 0 45 19
45 50 0 31 -17 50 -45 50 -12 0 -26 -5 -33 -12z m52 -51 c-3 -9 -12 -17 -19
-17 -19 0 -27 30 -14 47 10 12 14 12 26 0 8 -7 11 -21 7 -30z"/>
<path d="M3170 6738 c0 -57 13 -63 26 -12 12 47 28 48 32 2 4 -53 32 -52 32 1
0 45 -13 58 -57 58 -33 0 -33 -1 -33 -49z"/>
<path d="M3293 6784 c-24 -10 -14 -26 12 -20 14 4 25 2 25 -4 0 -5 -6 -10 -13
-10 -24 0 -48 -25 -41 -43 4 -12 18 -17 48 -17 l42 0 -6 48 c-4 41 -8 47 -30
49 -14 1 -31 -1 -37 -3z m42 -64 c-3 -5 -13 -10 -21 -10 -8 0 -12 5 -9 10 3 6
13 10 21 10 8 0 12 -4 9 -10z"/>
<path d="M3430 6741 c0 -39 4 -51 16 -51 12 0 14 10 12 47 -4 66 -28 70 -28 4z"/>
<path d="M3480 6775 c0 -8 8 -15 17 -15 14 0 13 -3 -5 -23 -33 -36 -28 -47 23
-47 25 0 45 5 45 10 0 6 -9 10 -20 10 -25 0 -25 8 1 36 27 29 17 44 -27 44
-24 0 -34 -5 -34 -15z"/>
<path d="M3820 6787 c0 -2 7 -24 16 -50 24 -70 48 -60 70 28 9 35 -14 32 -27
-2 l-11 -28 -10 28 c-5 15 -16 27 -24 27 -8 0 -14 -1 -14 -3z"/>
<path d="M3926 6768 c-20 -28 -20 -43 0 -62 20 -21 58 -20 75 0 12 15 10 16
-18 10 -18 -4 -34 -3 -38 3 -4 7 7 11 29 11 40 0 47 17 20 44 -22 22 -50 20
-68 -6z m49 -8 c3 -5 -1 -10 -10 -10 -9 0 -13 5 -10 10 3 6 8 10 10 10 2 0 7
-4 10 -10z"/>
<path d="M4020 6738 c0 -56 15 -64 24 -13 4 21 13 35 21 35 8 0 15 6 15 13 0
8 -12 14 -30 14 -29 0 -30 -2 -30 -49z"/>
<path d="M4094 6775 c-9 -23 3 -45 26 -45 11 0 20 -4 20 -10 0 -5 -14 -7 -32
-3 -30 6 -32 5 -19 -11 9 -11 25 -16 45 -14 26 2 31 7 31 28 0 18 -6 26 -22
28 -13 2 -23 8 -23 13 0 5 12 6 28 3 24 -7 26 -6 13 9 -17 21 -60 22 -67 2z"/>
<path d="M4190 6741 c0 -39 4 -51 16 -51 12 0 14 10 12 47 -4 66 -28 70 -28 4z"/>
<path d="M4252 6778 c-7 -7 -12 -24 -12 -38 0 -31 17 -50 45 -50 28 0 45 19
45 50 0 31 -17 50 -45 50 -12 0 -26 -5 -33 -12z m52 -51 c-3 -9 -12 -17 -19
-17 -19 0 -27 30 -14 47 10 12 14 12 26 0 8 -7 11 -21 7 -30z"/>
<path d="M4350 6738 c0 -57 13 -63 26 -12 12 47 28 48 32 2 4 -53 32 -52 32 1
0 45 -13 58 -57 58 -33 0 -33 -1 -33 -49z"/>
<path d="M4522 6778 c-18 -18 -15 -75 4 -82 41 -16 74 5 74 48 0 36 -53 59
-78 34z m53 -38 c0 -18 -6 -26 -21 -28 -25 -3 -39 29 -21 47 19 19 42 8 42
-19z"/>
<path d="M260 6520 c0 -5 5 -10 10 -10 6 0 10 5 10 10 0 6 -4 10 -10 10 -5 0
-10 -4 -10 -10z"/>
<path d="M460 6515 c-7 -9 -10 -19 -6 -22 4 -4 11 -1 16 6 5 9 15 11 26 7 18
-7 18 -8 -1 -22 -19 -14 -19 -16 -2 -25 9 -6 17 -17 17 -24 0 -17 -35 -20 -45
-5 -12 20 -26 10 -15 -10 11 -20 45 -26 67 -12 14 9 14 91 0 110 -13 17 -42
15 -57 -3z"/>
<path d="M561 6516 c-18 -21 -10 -97 12 -110 28 -18 52 4 55 53 3 46 -10 71
-38 71 -10 0 -23 -6 -29 -14z m47 -54 c3 -37 1 -42 -17 -42 -12 0 -22 7 -22
15 -1 8 -2 21 -3 28 -3 20 14 49 27 44 7 -2 13 -22 15 -45z"/>
<path d="M850 6520 c0 -5 5 -10 10 -10 6 0 10 5 10 10 0 6 -4 10 -10 10 -5 0
-10 -4 -10 -10z"/>
<path d="M1390 6520 c0 -5 5 -10 10 -10 6 0 10 5 10 10 0 6 -4 10 -10 10 -5 0
-10 -4 -10 -10z"/>
<path d="M1580 6484 c0 -64 13 -84 55 -84 42 0 55 20 55 84 0 64 -18 58 -22
-6 -3 -51 -4 -53 -33 -53 -29 0 -30 2 -33 53 -4 64 -22 70 -22 6z"/>
<path d="M1780 6511 c0 -14 -6 -17 -24 -14 -44 9 -70 -63 -32 -89 6 -4 23 -8
39 -8 27 0 27 1 27 65 0 36 -2 65 -5 65 -3 0 -5 -8 -5 -19z m-5 -61 c0 -31
-40 -42 -47 -13 -8 29 2 44 26 41 15 -2 21 -10 21 -28z"/>
<path d="M2020 6520 c0 -5 5 -10 10 -10 6 0 10 5 10 10 0 6 -4 10 -10 10 -5 0
-10 -4 -10 -10z"/>
<path d="M2222 6505 c0 -16 2 -22 5 -12 2 9 2 23 0 30 -3 6 -5 -1 -5 -18z"/>
<path d="M2412 6518 c-7 -7 -12 -19 -12 -27 1 -14 3 -13 14 2 15 20 32 22 42
6 4 -6 -9 -26 -30 -45 -20 -18 -36 -38 -36 -43 0 -6 20 -11 45 -11 25 0 45 5
45 10 0 6 -15 10 -32 10 l-33 1 33 27 c18 15 32 34 32 43 0 20 -20 39 -40 39
-9 0 -21 -5 -28 -12z"/>
<path d="M2511 6516 c-18 -21 -10 -97 12 -110 28 -18 52 4 55 53 3 46 -10 71
-38 71 -10 0 -23 -6 -29 -14z m47 -54 c3 -37 1 -42 -17 -42 -12 0 -22 7 -22
15 -1 8 -2 21 -3 28 -3 20 14 49 27 44 7 -2 13 -22 15 -45z"/>
<path d="M2620 6486 c-16 -25 -30 -47 -30 -50 0 -3 14 -6 30 -6 20 0 30 -5 30
-15 0 -21 17 -19 22 3 6 27 -3 112 -13 112 -4 0 -22 -20 -39 -44z m30 -16 c0
-11 -7 -20 -15 -20 -18 0 -19 12 -3 28 16 16 18 15 18 -8z"/>
<path d="M2713 6518 c-6 -7 -10 -35 -9 -63 l1 -50 35 0 35 0 1 50 c1 54 -9 75
-36 75 -10 0 -22 -6 -27 -12z m47 -23 c0 -8 -9 -15 -20 -15 -11 0 -20 7 -20
15 0 8 9 15 20 15 11 0 20 -7 20 -15z m0 -55 c0 -13 -7 -20 -20 -20 -13 0 -20
7 -20 20 0 13 7 20 20 20 13 0 20 -7 20 -20z"/>
<path d="M2950 6465 c0 -37 4 -65 10 -65 6 0 10 28 10 65 0 37 -4 65 -10 65
-6 0 -10 -28 -10 -65z"/>
<path d="M1090 6502 c-10 -12 -11 -17 -2 -20 7 -2 12 -21 12 -43 0 -28 4 -39
15 -39 8 0 15 5 15 10 0 6 -4 10 -10 10 -15 0 -12 58 2 62 10 4 9 8 -2 20 -14
13 -17 13 -30 0z"/>
<path d="M2060 6502 c-10 -12 -11 -17 -2 -20 7 -2 12 -21 12 -43 0 -28 4 -39
15 -39 8 0 15 5 15 10 0 6 -4 10 -10 10 -15 0 -12 58 2 62 10 4 9 8 -2 20 -14
13 -17 13 -30 0z"/>
<path d="M260 6450 c0 -27 5 -50 10 -50 6 0 10 23 10 50 0 28 -4 50 -10 50 -5
0 -10 -22 -10 -50z"/>
<path d="M300 6448 c0 -57 17 -65 22 -11 2 27 8 39 21 41 14 3 17 -4 17 -37 0
-23 5 -41 11 -41 6 0 9 19 7 48 l-3 47 -37 0 -38 1 0 -48z"/>
<path d="M700 6448 c0 -57 17 -65 22 -10 4 52 31 50 39 -3 5 -34 6 -36 8 -10
2 39 15 59 33 52 10 -3 13 -15 10 -35 -2 -16 1 -33 8 -37 8 -5 10 7 8 42 l-3
48 -62 0 -63 0 0 -47z"/>
<path d="M850 6450 c0 -27 5 -50 10 -50 6 0 10 23 10 50 0 28 -4 50 -10 50 -5
0 -10 -22 -10 -50z"/>
<path d="M890 6448 c0 -57 17 -65 22 -11 2 27 8 39 21 41 14 3 17 -4 17 -37 0
-23 5 -41 11 -41 6 0 9 19 7 48 l-3 47 -37 0 -38 1 0 -48z"/>
<path d="M992 6453 c3 -48 3 -48 41 -51 l37 -3 0 50 c0 28 -4 51 -10 51 -5 0
-10 -18 -10 -40 0 -33 -3 -40 -20 -40 -17 0 -20 7 -20 40 0 22 -5 40 -11 40
-6 0 -9 -19 -7 -47z"/>
<path d="M1156 6477 c-29 -43 11 -92 59 -73 28 10 16 26 -15 20 -19 -4 -30 -2
-30 5 0 6 14 11 30 11 22 0 30 5 30 18 0 43 -50 56 -74 19z m49 -7 c3 -5 -3
-10 -14 -10 -12 0 -21 5 -21 10 0 6 6 10 14 10 8 0 18 -4 21 -10z"/>
<path d="M1257 6494 c-17 -17 -5 -43 23 -53 42 -14 38 -25 -7 -16 -33 6 -35 5
-24 -9 17 -21 55 -20 72 0 11 14 10 18 -6 30 -10 8 -25 14 -32 14 -7 0 -13 5
-13 11 0 7 10 9 26 5 19 -5 25 -3 22 6 -5 14 -50 23 -61 12z"/>
<path d="M1390 6450 c0 -27 5 -50 10 -50 6 0 10 23 10 50 0 28 -4 50 -10 50
-5 0 -10 -22 -10 -50z"/>
<path d="M1430 6448 c0 -57 17 -65 22 -11 2 27 8 39 21 41 14 3 17 -4 17 -37
0 -23 5 -41 11 -41 6 0 9 19 7 48 l-3 47 -37 0 -38 1 0 -48z"/>
<path d="M1833 6493 c-25 -10 -12 -22 17 -16 19 3 30 1 30 -6 0 -6 -9 -11 -19
-11 -25 0 -52 -27 -45 -45 4 -10 20 -14 50 -13 36 0 42 3 33 14 -6 7 -9 23 -8
36 6 41 -18 58 -58 41z m42 -63 c-3 -5 -13 -10 -21 -10 -8 0 -14 5 -14 10 0 6
9 10 21 10 11 0 17 -4 14 -10z"/>
<path d="M1933 6488 c-40 -52 -7 -104 51 -82 17 7 22 34 6 34 -5 0 -10 -4 -10
-10 0 -17 -37 -11 -42 8 -10 38 22 58 50 30 7 -7 12 -8 12 -2 0 29 -49 45 -67
22z"/>
<path d="M2020 6450 c0 -27 5 -50 10 -50 6 0 10 23 10 50 0 28 -4 50 -10 50
-5 0 -10 -22 -10 -50z"/>
<path d="M2110 6496 c0 -2 9 -25 20 -50 17 -41 18 -47 3 -61 -8 -9 -13 -19 -9
-22 11 -11 34 18 49 60 8 23 18 50 22 60 4 9 3 17 -3 17 -5 0 -16 -17 -24 -37
l-14 -38 -13 38 c-7 20 -17 37 -22 37 -5 0 -9 -2 -9 -4z"/>
<path d="M2267 6494 c-17 -17 -5 -43 23 -53 42 -14 38 -25 -7 -16 -33 6 -35 5
-24 -9 17 -21 55 -20 72 0 11 14 10 18 -6 30 -10 8 -25 14 -32 14 -7 0 -13 5
-13 11 0 7 10 9 26 5 19 -5 25 -3 22 6 -5 14 -50 23 -61 12z"/>
<path d="M2863 6488 c-40 -52 -7 -104 51 -82 17 7 22 34 6 34 -5 0 -10 -4 -10
-10 0 -17 -37 -11 -42 8 -10 38 22 58 50 30 7 -7 12 -8 12 -2 0 29 -49 45 -67
22z"/>
<path d="M3003 6493 c-25 -10 -12 -22 17 -16 19 3 30 1 30 -6 0 -6 -9 -11 -19
-11 -25 0 -52 -27 -45 -45 4 -10 20 -14 50 -13 36 0 42 3 33 14 -6 7 -9 23 -8
36 6 41 -18 58 -58 41z m42 -63 c-3 -5 -13 -10 -21 -10 -8 0 -14 5 -14 10 0 6
9 10 21 10 11 0 17 -4 14 -10z"/>
<path d="M3097 6494 c-17 -17 -5 -43 23 -53 42 -14 38 -25 -7 -16 -33 6 -35 5
-24 -9 16 -19 52 -21 69 -4 9 9 15 9 24 0 17 -17 53 -15 69 4 11 14 10 18 -6
30 -10 8 -25 14 -32 14 -7 0 -13 5 -13 11 0 7 10 9 26 5 19 -5 25 -3 22 6 -3
7 -18 13 -34 13 -22 0 -30 -5 -32 -21 -2 -17 5 -25 30 -34 23 -9 28 -14 16
-17 -19 -5 -117 38 -118 51 0 4 12 5 26 2 19 -5 25 -3 22 6 -5 14 -50 23 -61
12z"/>
<path d="M3270 6410 c0 -5 4 -10 9 -10 6 0 13 5 16 10 3 6 -1 10 -9 10 -9 0
-16 -4 -16 -10z"/>
<path d="M1890 5895 l0 -225 860 0 860 0 0 225 0 225 -860 0 -860 0 0 -225z
m1710 0 l0 -215 -850 0 -850 0 0 215 0 215 850 0 850 0 0 -215z"/>
<path d="M270 5250 c-20 -20 -20 -33 -20 -2480 0 -2447 0 -2460 20 -2480 20
-20 33 -20 2480 -20 2447 0 2460 0 2480 20 20 20 20 33 20 2480 0 2447 0 2460
-20 2480 -20 20 -33 20 -2480 20 -2447 0 -2460 0 -2480 -20z m1195 -665 l0
-530 -530 0 -530 0 -3 520 c-1 286 0 526 3 533 3 10 115 12 532 10 l528 -3 0
-530z m1210 0 l0 -530 -530 0 -530 0 -3 520 c-1 286 0 526 3 533 3 10 115 12
532 10 l528 -3 0 -530z m1213 11 c1 -375 -1 -523 -9 -532 -16 -19 -1028 -21
-1047 -2 -17 17 -17 1029 0 1046 9 9 136 12 533 10 l520 -3 3 -519z m1207 -11
l0 -530 -530 0 -530 0 -3 520 c-1 286 0 526 3 533 3 10 115 12 532 10 l528 -3
0 -530z m-3630 -1210 l0 -530 -530 0 -530 0 -3 520 c-1 286 0 526 3 533 3 10
115 12 532 10 l528 -3 0 -530z m1210 0 l0 -530 -530 0 -530 0 -3 520 c-1 286
0 526 3 533 3 10 115 12 532 10 l528 -3 0 -530z m1210 0 l0 -530 -530 0 -530
0 -3 520 c-1 286 0 526 3 533 3 10 115 12 532 10 l528 -3 0 -530z m1199 519
c14 -14 16 -75 16 -519 0 -444 -2 -505 -16 -519 -14 -14 -74 -16 -510 -16
-322 0 -502 4 -515 10 -18 10 -19 27 -19 525 0 479 1 515 18 524 11 7 195 11
514 11 438 0 498 -2 512 -16z m-3619 -1729 l0 -530 -530 0 -530 0 -3 520 c-1
286 0 526 3 533 3 10 115 12 532 10 l528 -3 0 -530z m1199 509 c14 -14 16 -74
16 -514 0 -440 -2 -500 -16 -514 -14 -14 -74 -16 -515 -16 -326 0 -507 4 -520
10 -18 10 -19 27 -19 520 0 474 1 510 18 519 11 7 197 11 519 11 443 0 503 -2
517 -16z m1210 0 c14 -14 16 -74 16 -514 0 -440 -2 -500 -16 -514 -14 -14 -74
-16 -510 -16 -322 0 -502 4 -515 10 -18 10 -19 27 -19 520 0 474 1 510 18 519
11 7 195 11 514 11 438 0 498 -2 512 -16z m1210 0 c14 -14 16 -74 16 -514 0
-440 -2 -500 -16 -514 -14 -14 -74 -16 -510 -16 -322 0 -502 4 -515 10 -18 10
-19 27 -19 520 0 474 1 510 18 519 11 7 195 11 514 11 438 0 498 -2 512 -16z
m-3640 -1210 c14 -14 16 -74 16 -514 0 -440 -2 -500 -16 -514 -14 -14 -74 -16
-510 -16 -322 0 -502 4 -515 10 -18 10 -19 27 -19 520 0 474 1 510 18 519 11
7 195 11 514 11 438 0 498 -2 512 -16z m1220 0 c14 -14 16 -74 16 -514 0 -440
-2 -500 -16 -514 -14 -14 -74 -16 -515 -16 -326 0 -507 4 -520 10 -18 10 -19
27 -19 520 0 474 1 510 18 519 11 7 197 11 519 11 443 0 503 -2 517 -16z
m1210 0 c14 -14 16 -74 16 -514 0 -440 -2 -500 -16 -514 -14 -14 -74 -16 -510
-16 -322 0 -502 4 -515 10 -18 10 -19 27 -19 520 0 474 1 510 18 519 11 7 195
11 514 11 438 0 498 -2 512 -16z m1210 0 c14 -14 16 -74 16 -514 0 -440 -2
-500 -16 -514 -14 -14 -74 -16 -510 -16 -322 0 -502 4 -515 10 -18 10 -19 27
-19 520 0 474 1 510 18 519 11 7 195 11 514 11 438 0 498 -2 512 -16z"/>
<path d="M1030 4590 c0 -5 5 -10 10 -10 6 0 10 5 10 10 0 6 -4 10 -10 10 -5 0
-10 -4 -10 -10z"/>
<path d="M747 4570 c-3 -11 -9 -20 -14 -19 -27 5 -34 -3 -31 -33 3 -28 7 -33
31 -33 26 -1 27 1 27 52 0 56 -4 66 -13 33z m3 -50 c0 -11 -6 -20 -14 -20 -18
0 -29 16 -21 30 11 18 35 11 35 -10z"/>
<path d="M601 4538 c-1 -39 2 -48 20 -53 12 -4 25 -3 31 3 15 15 23 92 9 92
-6 0 -11 -17 -11 -41 0 -33 -3 -40 -17 -37 -12 2 -20 16 -24 43 l-6 40 -2 -47z"/>
<path d="M1111 4559 c-6 -11 -7 -19 -2 -19 5 0 11 -12 13 -27 2 -20 9 -29 26
-31 12 -2 22 1 22 7 0 6 -9 11 -20 11 -22 0 -29 36 -7 42 9 2 8 7 -4 19 -15
15 -17 15 -28 -2z"/>
<path d="M1300 4572 c0 -10 22 -32 32 -32 15 0 8 15 -12 28 -11 7 -20 9 -20 4z"/>
<path d="M528 4556 c-24 -18 -22 -31 7 -50 14 -9 25 -12 25 -7 0 6 -8 15 -17
20 -17 10 -17 12 0 25 18 14 22 26 10 26 -5 0 -16 -7 -25 -14z"/>
<path d="M810 4550 c-12 -7 -8 -10 15 -11 l30 -1 -28 -10 c-39 -14 -32 -42 11
-44 26 -1 32 2 32 18 0 26 -18 58 -33 58 -7 0 -19 -5 -27 -10z m40 -40 c0 -5
-9 -10 -21 -10 -11 0 -17 5 -14 10 3 6 13 10 21 10 8 0 14 -4 14 -10z"/>
<path d="M918 4549 c-40 -23 -7 -81 35 -61 21 10 21 11 -5 11 -21 1 -28 6 -28
21 0 15 7 20 28 20 21 0 24 2 12 10 -18 12 -21 12 -42 -1z"/>
<path d="M1015 4541 c11 -4 23 -21 26 -37 6 -27 7 -27 8 9 1 34 -1 37 -26 36
-24 0 -25 -1 -8 -8z"/>
<path d="M1200 4545 c0 -3 7 -19 15 -35 14 -26 13 -30 -2 -39 -10 -5 -14 -13
-10 -17 4 -4 14 -1 21 7 19 19 47 89 37 89 -5 0 -11 -9 -14 -20 -6 -23 -27
-27 -27 -6 0 8 -4 18 -10 21 -5 3 -10 3 -10 0z"/>
<path d="M1310 4510 c-8 -5 -12 -11 -9 -14 3 -3 14 1 25 9 21 16 8 20 -16 5z"/>
<path d="M2018 4584 c-5 -4 -8 -25 -8 -46 0 -37 2 -39 28 -36 35 4 45 46 13
55 -11 3 -21 12 -23 20 -2 8 -6 11 -10 7z m32 -54 c0 -5 -4 -10 -10 -10 -5 0
-10 5 -10 10 0 6 5 10 10 10 6 0 10 -4 10 -10z"/>
<path d="M2112 4578 c-17 -17 -15 -73 3 -88 18 -15 19 -9 4 23 -8 18 -8 30 1
47 13 25 9 35 -8 18z"/>
<path d="M2231 4545 c0 -38 2 -46 10 -35 8 11 12 12 16 3 9 -23 20 -13 19 17
-1 32 -10 38 -23 18 -5 -9 -10 -3 -14 17 -5 25 -7 21 -8 -20z"/>
<path d="M2320 4580 c0 -5 5 -10 10 -10 6 0 10 5 10 10 0 6 -4 10 -10 10 -5 0
-10 -4 -10 -10z"/>
<path d="M2365 4580 c-3 -5 -1 -10 4 -10 6 0 11 -14 11 -30 0 -30 23 -51 38
-35 4 4 1 10 -5 12 -7 3 -13 20 -13 39 0 33 -20 47 -35 24z"/>
<path d="M2435 4580 c-3 -5 -1 -10 4 -10 6 0 11 -14 11 -30 0 -30 23 -51 38
-35 4 4 1 10 -5 12 -7 3 -13 20 -13 39 0 33 -20 47 -35 24z"/>
<path d="M2593 4561 c8 -22 8 -36 -1 -56 -10 -21 -10 -26 0 -23 30 10 29 108
-1 108 -5 0 -5 -12 2 -29z"/>
<path d="M1810 4562 c-10 -11 -11 -17 -2 -20 7 -2 12 -12 12 -23 0 -12 7 -19
20 -19 11 0 20 5 20 11 0 5 -4 8 -9 5 -5 -3 -11 1 -15 9 -3 9 0 15 9 15 8 0
15 5 15 10 0 6 -6 10 -14 10 -8 0 -16 4 -18 9 -1 5 -10 2 -18 -7z"/>
<path d="M1880 4570 c0 -5 7 -10 15 -10 25 0 18 -38 -7 -43 -20 -3 -21 -4 -5
-11 29 -14 47 1 47 39 0 31 -3 35 -25 35 -14 0 -25 -4 -25 -10z"/>
<path d="M1676 4548 c-19 -60 -17 -68 14 -68 20 0 30 5 30 15 0 8 -7 15 -16
15 -14 0 -14 1 0 16 9 8 16 20 16 25 0 14 -40 11 -44 -3z m24 -8 c0 -5 -5 -10
-11 -10 -5 0 -7 5 -4 10 3 6 8 10 11 10 2 0 4 -4 4 -10z"/>
<path d="M1740 4545 c-16 -20 3 -46 34 -44 17 1 17 2 4 6 -10 2 -18 9 -18 15
0 5 7 7 16 4 11 -4 14 -1 12 11 -4 23 -32 28 -48 8z"/>
<path d="M1951 4547 c-17 -21 -3 -49 23 -45 15 2 21 10 21 28 0 28 -26 38 -44
17z m29 -17 c0 -5 -4 -10 -10 -10 -5 0 -10 5 -10 10 0 6 5 10 10 10 6 0 10 -4
10 -10z"/>
<path d="M2165 4549 c-4 -6 1 -17 11 -25 17 -14 17 -15 2 -10 -10 3 -18 1 -18
-4 0 -13 37 -13 45 1 4 6 -1 17 -11 25 -18 14 -18 14 0 7 13 -4 17 -3 12 5 -9
15 -33 16 -41 1z"/>
<path d="M2300 4550 c0 -5 5 -10 10 -10 6 0 10 -9 10 -20 0 -11 5 -20 10 -20
6 0 10 14 10 30 0 23 -4 30 -20 30 -11 0 -20 -4 -20 -10z"/>
<path d="M2515 4549 c-4 -6 1 -17 11 -25 17 -14 17 -15 2 -10 -10 3 -18 1 -18
-4 0 -13 37 -13 45 1 4 6 -1 17 -11 25 -18 14 -18 14 0 7 13 -4 17 -3 12 5 -9
15 -33 16 -41 1z"/>
<path d="M1760 3365 c0 -8 5 -15 10 -15 6 0 10 -13 10 -30 0 -16 -4 -30 -10
-30 -5 0 -10 -4 -10 -10 0 -5 16 -10 35 -10 36 0 47 13 20 24 -8 3 -15 17 -15
31 0 16 6 25 15 25 8 0 15 7 15 15 0 10 -11 15 -35 15 -24 0 -35 -5 -35 -15z"/>
<path d="M2373 3368 c-22 -27 -24 -55 -5 -78 15 -18 24 -22 46 -16 31 8 27 20
-7 21 -32 0 -31 49 1 53 13 2 21 9 19 15 -5 17 -42 20 -54 5z"/>
<path d="M2473 3374 c-14 -6 -18 -54 -5 -54 5 0 17 -7 28 -16 18 -15 18 -15
-8 -10 -34 8 -47 -11 -13 -20 34 -8 55 1 55 26 0 13 -10 25 -27 32 l-28 12 28
4 c16 2 27 9 24 15 -4 13 -35 19 -54 11z"/>
<path d="M1688 3348 c-35 -25 -35 -30 2 -51 31 -19 42 -9 15 13 -14 11 -13 14
1 25 9 6 15 17 13 23 -3 6 -14 3 -31 -10z"/>
<path d="M1966 3349 c-11 -10 -14 -19 -8 -19 7 0 12 -8 12 -18 0 -10 5 -23 12
-30 15 -15 48 -16 48 -2 0 6 -7 10 -15 10 -8 0 -15 9 -15 20 0 11 7 20 15 20
8 0 15 5 15 10 0 6 -7 10 -15 10 -8 0 -15 5 -15 10 0 15 -13 11 -34 -11z"/>
<path d="M2560 3356 c0 -8 10 -18 22 -22 l21 -6 -24 -19 c-31 -23 -18 -36 15
-14 34 22 33 37 -4 58 -25 15 -30 16 -30 3z"/>
<path d="M1860 3308 c0 -44 17 -52 22 -10 4 33 22 32 26 -3 5 -40 24 -29 20
13 -3 34 -5 37 -35 37 -32 1 -33 -1 -33 -37z"/>
<path d="M2064 3341 c-2 -2 -4 -19 -4 -38 0 -23 5 -33 15 -33 9 0 15 10 15 26
0 17 6 28 20 31 31 8 24 22 -11 20 -17 -1 -32 -4 -35 -6z"/>
<path d="M2166 3334 c-20 -19 -20 -38 -1 -54 23 -19 65 -4 65 23 0 43 -35 60
-64 31z m42 -27 c2 -10 -3 -17 -12 -17 -10 0 -16 9 -16 21 0 24 23 21 28 -4z"/>
<path d="M3450 3380 c0 -5 5 -10 10 -10 6 0 10 5 10 10 0 6 -4 10 -10 10 -5 0
-10 -4 -10 -10z"/>
<path d="M3167 3360 c-3 -11 -9 -20 -14 -19 -27 5 -34 -3 -31 -33 3 -28 7 -33
31 -33 26 -1 27 1 27 52 0 56 -4 66 -13 33z m3 -50 c0 -21 -24 -28 -35 -10 -8
14 3 30 21 30 8 0 14 -9 14 -20z"/>
<path d="M3021 3328 c-1 -39 2 -48 20 -53 12 -4 25 -3 31 3 15 15 23 92 9 92
-6 0 -11 -17 -11 -41 0 -33 -3 -40 -17 -37 -12 2 -20 16 -24 43 l-6 40 -2 -47z"/>
<path d="M3531 3349 c-6 -11 -7 -19 -2 -19 5 0 11 -12 13 -27 2 -20 9 -29 26
-31 12 -2 22 1 22 7 0 6 -9 11 -20 11 -22 0 -29 36 -7 42 9 2 8 7 -4 19 -15
15 -17 15 -28 -2z"/>
<path d="M3720 3361 c0 -6 9 -16 20 -23 11 -7 20 -16 20 -20 0 -4 -9 -10 -20
-13 -11 -3 -20 -11 -20 -16 0 -6 14 -2 30 8 17 9 30 21 30 24 0 4 -13 17 -30
29 -16 12 -30 17 -30 11z"/>
<path d="M2948 3346 c-24 -18 -22 -31 7 -50 14 -9 25 -12 25 -7 0 6 -8 15 -17
20 -17 10 -17 12 0 25 18 14 22 26 10 26 -5 0 -16 -7 -25 -14z"/>
<path d="M3230 3340 c-12 -7 -8 -10 15 -11 l30 -1 -28 -10 c-39 -14 -32 -42
11 -44 26 -1 32 2 32 18 0 26 -18 58 -33 58 -7 0 -19 -5 -27 -10z m40 -40 c0
-5 -9 -10 -21 -10 -11 0 -17 5 -14 10 3 6 13 10 21 10 8 0 14 -4 14 -10z"/>
<path d="M3338 3339 c-40 -23 -7 -81 35 -61 21 10 21 11 -5 11 -21 1 -28 6
-28 21 0 15 7 20 28 20 21 0 24 2 12 10 -18 12 -21 12 -42 -1z"/>
<path d="M3435 3331 c11 -4 23 -21 26 -37 6 -27 7 -27 8 9 1 34 -1 37 -26 36
-24 0 -25 -1 -8 -8z"/>
<path d="M3620 3335 c0 -3 7 -19 15 -35 14 -26 13 -30 -2 -39 -10 -5 -14 -13
-10 -17 4 -4 14 -1 21 7 19 19 47 89 37 89 -5 0 -11 -9 -14 -20 -6 -23 -27
-27 -27 -6 0 8 -4 18 -10 21 -5 3 -10 3 -10 0z"/>
<path d="M550 2155 c0 -8 5 -15 10 -15 6 0 10 -13 10 -30 0 -16 -4 -30 -10
-30 -5 0 -10 -4 -10 -10 0 -5 16 -10 35 -10 36 0 47 13 20 24 -8 3 -15 17 -15
31 0 16 6 25 15 25 8 0 15 7 15 15 0 10 -11 15 -35 15 -24 0 -35 -5 -35 -15z"/>
<path d="M1163 2158 c-22 -27 -24 -55 -5 -78 15 -18 24 -22 46 -16 31 8 27 20
-7 21 -32 0 -31 49 1 53 13 2 21 9 19 15 -5 17 -42 20 -54 5z"/>
<path d="M1263 2164 c-14 -6 -18 -54 -5 -54 5 0 17 -7 28 -16 18 -15 18 -15
-8 -10 -34 8 -47 -11 -13 -20 34 -8 55 1 55 26 0 13 -10 25 -27 32 l-28 12 28
4 c16 2 27 9 24 15 -4 13 -35 19 -54 11z"/>
<path d="M478 2138 c-35 -25 -35 -30 2 -51 31 -19 42 -9 15 13 -14 11 -13 14
1 25 9 6 15 17 13 23 -3 6 -14 3 -31 -10z"/>
<path d="M756 2139 c-11 -10 -14 -19 -8 -19 7 0 12 -8 12 -18 0 -10 5 -23 12
-30 15 -15 48 -16 48 -2 0 6 -7 10 -15 10 -8 0 -15 9 -15 20 0 11 7 20 15 20
8 0 15 5 15 10 0 6 -7 10 -15 10 -8 0 -15 5 -15 10 0 15 -13 11 -34 -11z"/>
<path d="M1350 2146 c0 -8 10 -18 22 -22 l21 -6 -24 -19 c-31 -23 -18 -36 15
-14 34 22 33 37 -4 58 -25 15 -30 16 -30 3z"/>
<path d="M650 2098 c0 -44 17 -52 22 -10 4 33 22 32 26 -3 5 -40 24 -29 20 13
-3 34 -5 37 -35 37 -32 1 -33 -1 -33 -37z"/>
<path d="M854 2131 c-2 -2 -4 -19 -4 -38 0 -23 5 -33 15 -33 9 0 15 10 15 26
0 17 6 28 20 31 31 8 24 22 -11 20 -17 -1 -32 -4 -35 -6z"/>
<path d="M956 2124 c-20 -19 -20 -38 -1 -54 23 -19 65 -4 65 23 0 43 -35 60
-64 31z m42 -27 c2 -10 -3 -17 -12 -17 -10 0 -16 9 -16 21 0 24 23 21 28 -4z"/>
</g>
</svg>
